<svg width="74" height="169" viewBox="0 0 74 169" fill="none" xmlns="http://www.w3.org/2000/svg">
<path d="M42 5C42 2.23858 39.7614 0 37 0C34.2386 0 32 2.23858 32 5L42 5ZM33.4645 166.539C35.4171 168.492 38.5829 168.492 40.5355 166.539L72.3553 134.72C74.308 132.767 74.308 129.601 72.3553 127.648C70.4027 125.696 67.2369 125.696 65.2843 127.648L37 155.933L8.71573 127.648C6.76311 125.696 3.59728 125.696 1.64466 127.648C-0.307961 129.601 -0.307961 132.767 1.64466 134.72L33.4645 166.539ZM32 5L32 163.004H42L42 5L32 5Z" fill="white"/>
</svg>
